<?xml version="1.0" standalone="no"?>
<!DOCTYPE svg PUBLIC "-//W3C//DTD SVG 20010904//EN"
 "http://www.w3.org/TR/2001/REC-SVG-20010904/DTD/svg10.dtd">
<svg version="1.0" xmlns="http://www.w3.org/2000/svg"
 width="665.000000pt" height="665.000000pt" viewBox="0 0 665.000000 665.000000"
 preserveAspectRatio="xMidYMid meet">
<metadata>
Created by potrace 1.11, written by Peter Selinger 2001-2013
</metadata>
<g transform="translate(0.000000,665.000000) scale(0.100000,-0.100000)"
fill="#000000" stroke="none">
<path d="M2984 6462 c-4 -9 -6 -21 -5 -25 0 -4 -6 -21 -14 -38 -9 -16 -13 -34
-10 -39 3 -6 3 -10 -2 -10 -4 0 -17 -21 -27 -48 -18 -45 -102 -191 -116 -202
-3 -3 -17 -21 -30 -40 -13 -19 -29 -40 -35 -46 -5 -6 -26 -32 -45 -57 -19 -26
-45 -60 -58 -75 -18 -22 -64 -104 -68 -122 0 -3 -8 -21 -17 -41 -9 -20 -18
-47 -21 -60 -2 -13 -8 -35 -13 -49 -5 -14 -9 -32 -8 -40 1 -8 -3 -21 -8 -28
-13 -17 -17 -263 -5 -315 5 -23 11 -53 13 -67 10 -62 58 -203 86 -250 4 -8 16
-29 25 -47 9 -18 46 -63 82 -101 85 -88 108 -114 157 -182 22 -30 47 -64 57
-74 10 -10 15 -23 12 -27 -2 -4 0 -11 6 -14 10 -6 70 -118 71 -132 0 -5 8 -16
17 -27 9 -10 16 -21 16 -25 -1 -3 3 -17 8 -31 19 -48 39 -105 43 -120 44 -167
61 -246 57 -263 -2 -5 1 -6 6 -3 7 4 7 69 -1 194 -1 12 -4 22 -7 22 -3 0 -5
19 -5 43 1 23 -2 56 -6 72 -4 17 -10 47 -13 68 -4 21 -10 47 -16 56 -5 10 -7
20 -5 23 5 5 -26 106 -49 159 -36 85 -91 162 -179 250 -80 80 -191 229 -170
229 3 0 -1 8 -10 18 -8 9 -16 22 -16 27 -1 6 -8 30 -16 55 -8 25 -17 61 -20
80 -3 19 -9 44 -12 55 -10 32 -10 285 0 335 16 84 18 94 22 100 2 4 7 21 10
38 3 17 10 44 17 59 6 15 11 31 10 36 -1 4 3 7 10 7 6 0 9 3 6 6 -13 12 46
119 158 291 19 28 34 56 34 62 0 6 5 11 10 11 5 0 9 3 8 8 -1 4 10 31 24 60
15 28 25 52 22 52 -2 0 2 13 10 29 9 16 13 31 10 34 -3 3 -2 12 2 19 9 14 11
24 17 76 5 36 -7 51 -19 24z"/>
<path d="M3716 5213 c3 -16 10 -32 15 -38 7 -7 7 -1 0 16 -5 15 -7 29 -5 32 3
3 1 8 -5 11 -6 4 -8 -4 -5 -21z"/>
<path d="M3736 5138 c3 -13 11 -25 15 -26 5 -2 7 -8 3 -13 -3 -5 0 -9 5 -9 6
0 10 -3 9 -7 -4 -15 13 -53 23 -53 6 0 7 -4 4 -10 -3 -5 -3 -10 2 -10 4 0 24
-30 43 -68 19 -37 40 -70 45 -74 6 -4 7 -8 3 -8 -4 0 -1 -15 7 -32 7 -18 16
-50 19 -72 4 -21 9 -42 12 -47 3 -5 6 -53 6 -107 1 -80 -4 -122 -27 -222 -1
-3 -12 -27 -24 -55 -13 -27 -24 -52 -25 -55 -1 -5 -14 -20 -93 -106 -34 -37
-83 -117 -89 -144 0 -3 -3 -12 -7 -20 -13 -35 -26 -88 -32 -130 -3 -25 -8 -57
-11 -72 -7 -36 -14 -162 -9 -156 3 2 7 22 11 44 3 21 8 43 11 48 3 4 7 20 8
35 6 60 50 167 101 248 19 28 34 56 34 60 0 4 13 22 28 40 15 17 41 48 57 69
17 20 35 42 40 48 17 18 39 70 38 88 0 10 4 15 8 12 7 -4 13 20 7 29 -1 1 4
12 11 25 6 12 14 40 16 62 2 23 8 56 14 75 5 18 7 36 5 38 -2 2 -7 30 -10 63
-3 32 -7 70 -9 84 -7 41 -48 150 -57 150 -4 0 -8 6 -8 13 0 8 -9 24 -20 37
-11 13 -20 26 -20 29 0 3 -16 24 -35 46 -20 22 -38 48 -41 58 -3 9 -10 17 -15
17 -5 0 -8 4 -6 8 3 12 -37 92 -46 92 -5 0 -5 -10 -1 -22z"/>
<path d="M933 3502 c-52 -27 -75 -55 -90 -112 -7 -25 0 -325 7 -325 1 0 3 -22
5 -50 1 -27 5 -63 8 -80 3 -16 9 -55 12 -85 4 -30 8 -57 10 -60 2 -3 6 -26 9
-53 4 -26 11 -58 16 -71 5 -13 7 -26 4 -29 -3 -2 9 -53 26 -113 29 -102 36
-130 39 -162 0 -7 6 -10 13 -6 7 4 8 3 4 -5 -7 -11 20 -99 34 -111 3 -3 6 -12
6 -20 1 -17 11 -46 25 -72 5 -10 9 -23 9 -31 0 -7 8 -28 19 -47 10 -19 19 -37
19 -40 3 -19 56 -126 65 -132 7 -4 9 -8 4 -8 -13 0 138 -282 155 -288 4 -2 8
-9 8 -16 0 -6 16 -35 35 -65 19 -29 35 -54 35 -56 0 -4 91 -128 115 -158 8 -9
15 -22 15 -27 0 -6 5 -10 12 -10 6 0 8 -3 5 -7 -4 -3 4 -16 18 -28 13 -13 21
-26 18 -29 -4 -3 -1 -6 5 -6 7 0 12 -9 12 -20 0 -26 -18 -28 -105 -15 -27 4
-76 9 -109 10 -32 2 -70 6 -84 10 -14 3 -61 8 -105 11 -44 2 -93 7 -109 9 -16
3 -64 8 -106 10 -42 3 -89 8 -103 10 -14 3 -55 8 -90 10 -35 2 -86 7 -114 11
-27 4 -79 8 -115 10 -36 2 -86 7 -112 10 -35 4 -48 3 -48 -7 0 -7 -3 -9 -7 -6
-9 10 -33 -13 -33 -32 0 -27 23 -51 52 -56 15 -3 39 -10 53 -15 14 -5 25 -8
25 -5 0 2 19 -2 42 -11 22 -8 43 -12 46 -9 3 3 11 0 17 -5 7 -6 25 -12 41 -14
16 -3 40 -7 54 -11 14 -3 36 -8 50 -11 14 -2 31 -7 39 -10 8 -2 30 -7 50 -10
20 -3 43 -10 52 -15 9 -4 18 -6 21 -4 3 3 25 -1 51 -9 25 -7 48 -12 50 -10 2
3 16 0 31 -6 15 -5 41 -12 57 -15 16 -3 58 -12 92 -21 34 -9 73 -17 87 -18 14
-1 35 -6 46 -10 12 -4 35 -8 50 -10 16 -3 42 -9 58 -15 16 -7 31 -9 33 -7 3 3
16 1 29 -4 13 -5 45 -12 71 -16 27 -3 52 -8 56 -11 4 -2 20 -6 35 -8 15 -2 56
-11 92 -20 36 -9 81 -18 100 -20 19 -2 49 -8 65 -13 17 -5 40 -8 53 -7 12 1
22 -1 22 -5 0 -4 6 -7 13 -8 46 -6 83 -13 150 -28 4 -1 11 -2 16 -3 5 0 7 -10
4 -21 -3 -11 -2 -35 1 -54 5 -25 14 -37 37 -47 25 -10 247 -12 1052 -12 l1020
0 22 26 c11 15 21 43 22 63 0 19 3 37 6 40 8 8 197 64 225 66 12 1 22 5 22 9
0 3 6 6 13 7 27 2 72 14 77 20 3 4 12 8 20 8 16 0 94 21 120 31 8 3 29 7 46 8
17 1 35 4 40 7 5 4 34 9 64 13 30 3 63 9 74 12 10 3 35 7 55 9 20 1 47 6 61 9
14 4 41 8 60 9 19 2 44 6 55 9 11 3 38 8 60 12 22 3 47 7 55 10 8 2 31 6 50 9
19 2 42 7 50 10 8 3 31 8 50 11 19 3 52 9 73 14 20 5 37 7 37 5 0 -3 9 0 20 6
12 6 38 13 58 15 20 2 69 11 107 20 39 9 84 18 100 19 17 2 30 5 30 6 0 1 9 3
20 5 65 13 230 66 237 77 24 39 -6 61 -90 63 -37 1 -87 -3 -112 -7 -25 -5 -82
-11 -128 -13 -45 -2 -95 -6 -110 -9 -15 -4 -60 -8 -101 -11 -41 -2 -77 -8 -80
-12 -3 -4 -44 -9 -91 -10 -107 -2 -160 -7 -160 -13 0 -3 -28 -6 -63 -6 -115
-3 -128 -4 -124 -12 3 -4 -29 -7 -71 -7 -43 0 -97 -3 -122 -8 -68 -12 -208
-18 -214 -8 -6 8 76 130 95 141 6 4 10 11 10 16 -1 5 36 9 81 10 46 1 94 5
108 11 14 5 32 9 40 8 8 -1 24 3 35 9 11 5 26 11 34 12 8 2 18 9 22 16 5 7 9
9 9 5 0 -23 147 104 218 189 22 26 90 48 208 68 12 2 31 9 43 15 11 7 21 9 21
5 0 -3 6 -1 13 5 8 6 22 12 33 14 10 2 37 12 59 22 22 11 42 19 45 20 11 2 76
39 105 59 39 27 75 68 75 84 0 6 5 12 10 12 6 0 10 9 10 20 0 11 4 20 8 20 7
0 26 40 30 63 1 4 8 15 17 23 8 9 13 20 10 25 -4 5 -2 9 2 9 9 0 57 114 53
126 -1 4 3 10 9 13 6 4 12 19 13 34 1 15 8 29 16 32 7 3 10 10 7 15 -4 6 -3
16 2 23 10 12 57 154 58 172 0 6 3 15 7 20 3 6 9 27 12 49 4 21 9 42 12 47 2
5 7 27 9 49 2 22 7 45 11 51 4 6 8 32 9 58 2 25 6 66 10 91 12 70 12 293 1
315 -5 11 -11 29 -13 39 -2 11 -13 35 -25 55 -23 36 -78 96 -78 84 0 -4 -7 2
-15 13 -8 10 -15 15 -15 9 0 -5 -4 -4 -8 3 -11 16 -115 53 -167 59 -22 3 -47
8 -55 12 -8 4 -95 7 -193 7 l-178 -1 -16 37 c-9 20 -28 42 -42 49 -41 21
-4538 21 -4578 1z m4527 -70 c56 -19 70 -53 64 -153 -2 -46 -6 -122 -9 -169
-2 -47 -7 -96 -10 -110 -3 -14 -7 -47 -10 -75 -2 -27 -10 -70 -18 -95 l-13
-45 -2247 -1 c-1236 0 -2252 3 -2257 6 -6 4 -13 20 -16 36 -3 16 -8 38 -11 49
-3 11 -7 37 -9 58 -2 20 -5 41 -8 45 -5 8 -19 145 -20 200 -1 12 -3 22 -6 22
-3 0 -4 34 -3 75 3 102 35 145 126 164 15 3 1014 6 2220 5 1659 0 2201 -3
2227 -12z m482 -106 c43 -3 83 -8 88 -11 6 -4 22 -8 36 -11 14 -3 36 -12 49
-20 13 -9 26 -14 28 -12 11 10 80 -63 104 -111 25 -49 28 -67 27 -141 0 -47
-5 -114 -9 -150 -4 -36 -8 -84 -8 -107 0 -24 -3 -43 -6 -43 -4 0 -8 -12 -10
-27 -6 -56 -9 -78 -11 -78 -2 0 -11 -37 -14 -60 -1 -11 -8 -30 -14 -42 -7 -13
-10 -23 -8 -23 3 0 -1 -18 -9 -41 -8 -22 -14 -43 -13 -47 1 -4 -1 -14 -5 -22
-3 -8 -13 -40 -23 -70 -9 -30 -21 -61 -27 -67 -5 -7 -7 -13 -4 -13 4 0 -3 -21
-14 -47 -30 -69 -41 -98 -37 -99 2 0 -5 -8 -14 -18 -10 -10 -18 -24 -18 -31 0
-7 -6 -20 -12 -27 -7 -7 -26 -32 -42 -56 -59 -86 -135 -154 -178 -158 -10 -1
-23 -2 -29 -3 -5 0 -7 -6 -3 -13 4 -6 3 -8 -3 -5 -5 3 -27 2 -48 -4 -20 -6
-45 -12 -54 -14 -19 -4 -106 -33 -141 -48 -14 -6 -27 -11 -30 -12 -84 -22
-170 -73 -170 -101 0 -6 -57 -61 -103 -99 -20 -18 -101 -59 -117 -60 -3 -1
-14 -4 -25 -8 -32 -11 -110 -16 -122 -9 -8 5 2 28 29 72 23 36 44 67 47 70 3
3 11 14 17 25 6 11 36 59 67 106 31 48 53 90 50 93 -4 3 -2 6 3 6 5 0 27 34
49 75 42 81 46 83 114 90 25 3 64 7 86 9 22 3 55 9 74 15 18 6 36 10 40 9 13
-3 147 66 188 96 22 17 49 44 58 59 10 16 31 44 47 63 17 19 26 34 22 34 -5 0
-4 4 3 8 6 4 13 14 15 22 2 8 9 21 16 28 7 8 10 18 7 23 -4 5 -2 9 3 9 8 0 16
15 37 70 1 3 4 12 8 20 29 76 38 112 33 125 -3 9 -2 13 4 10 6 -3 11 2 11 12
3 40 8 77 14 92 4 9 9 59 11 111 2 52 6 107 8 122 2 16 1 30 -4 33 -4 3 -6 14
-3 25 7 26 -28 81 -67 103 -35 21 -87 28 -245 31 -132 4 -126 3 -119 20 3 8 0
17 -6 21 -7 5 -8 11 -1 19 6 7 12 49 13 95 2 53 8 85 16 90 13 8 204 7 344 -3z
m-72 -329 c37 -9 70 -28 78 -44 11 -20 8 -254 -3 -272 -4 -7 -8 -34 -10 -61
-2 -27 -7 -55 -11 -62 -5 -7 -9 -20 -10 -28 -1 -16 -2 -20 -37 -110 -12 -30
-22 -57 -22 -60 0 -13 -65 -96 -112 -144 -56 -58 -125 -110 -170 -127 -15 -6
-29 -10 -31 -10 -1 1 -15 -5 -30 -12 -49 -26 -177 -42 -202 -27 -9 5 -8 16 4
44 8 20 12 36 8 36 -4 0 -2 4 4 8 9 6 73 167 78 195 1 7 4 17 8 22 12 19 37
115 30 115 -4 0 -1 4 7 9 7 5 14 21 16 37 2 16 8 41 14 57 6 15 8 27 5 27 -2
0 0 8 5 18 5 9 11 31 14 47 3 17 8 41 11 55 3 13 8 42 12 64 3 22 8 45 11 50
3 5 7 32 8 62 3 54 12 92 25 109 8 9 264 11 300 2z m-458 -416 c14 -1 16 -6 9
-23 -5 -13 -9 -26 -9 -31 -2 -26 -17 -75 -32 -101 l-17 -31 -2130 -1 c-1172
-1 -2135 1 -2140 5 -28 19 -74 168 -56 179 9 5 4301 9 4375 3z m-129 -379 c-3
-28 -50 -129 -64 -137 -5 -4 -7 -10 -4 -15 3 -4 -1 -10 -8 -12 -6 -3 -900 -5
-1986 -5 l-1975 0 -22 24 c-37 40 -74 139 -60 161 2 4 930 7 2063 7 l2058 -1
-2 -22z m-191 -409 c9 -10 9 -13 0 -13 -7 0 -12 -7 -12 -15 0 -8 -4 -15 -10
-15 -5 0 -10 -5 -10 -10 0 -6 -23 -44 -50 -85 -28 -41 -48 -75 -44 -75 4 0 -5
-12 -20 -26 -14 -15 -26 -33 -26 -40 0 -8 -4 -14 -10 -14 -5 0 -10 -7 -10 -15
0 -8 -4 -15 -10 -15 -5 0 -10 -6 -10 -14 0 -8 -4 -16 -8 -18 -4 -1 -23 -25
-42 -53 -19 -27 -39 -55 -45 -61 -5 -6 -24 -29 -41 -50 -36 -44 -114 -125
-114 -118 0 3 -10 -1 -22 -7 -13 -7 -70 -13 -133 -15 -60 -1 -153 -5 -205 -9
-52 -4 -158 -8 -235 -10 -77 -2 -216 -6 -310 -10 -174 -8 -1054 -13 -1068 -7
-4 2 -70 6 -145 8 -75 3 -182 6 -237 8 -55 2 -127 7 -160 10 -33 4 -120 9
-194 12 -74 2 -141 6 -150 9 -19 7 -85 87 -193 235 -43 58 -82 110 -88 117 -5
7 -10 15 -10 18 0 4 -15 27 -32 53 -18 26 -45 70 -59 99 -14 29 -32 59 -39 68
-7 8 -10 15 -6 15 4 0 -1 11 -9 24 -15 23 -15 25 2 28 10 2 856 4 1880 4 1476
-1 1865 -4 1875 -13z"/>
</g>
</svg>
